<svg width="41" height="42" viewBox="0 0 41 42" fill="none" xmlns="http://www.w3.org/2000/svg">
<path fill-rule="evenodd" clip-rule="evenodd" d="M20.5 39.7917C10.25 35.2255 5.125 30.6699 5.125 26.125V9.04171C5.125 7.7304 5.62827 7.42565 7.02113 6.5822C7.44285 6.32683 7.94612 6.02207 8.54167 5.62504C8.81806 5.44078 14.6288 2.20837 20.5 2.20837C25.6169 2.20837 29.8958 3.91671 32.4583 5.62504C33.0539 6.02207 33.5572 6.32683 33.9789 6.5822C35.3717 7.42565 35.875 7.7304 35.875 9.04171C35.9087 9.41278 35.8921 17.3034 35.8815 22.356L35.8815 22.3577V22.3578C35.8779 24.0807 35.875 25.4734 35.875 26.125C35.875 30.6806 30.75 35.2361 20.5 39.7917ZM32.4583 26.125C32.4583 25.7316 32.4593 25.0724 32.4615 23.9976L32.4684 20.6608C32.4706 19.5813 32.4723 18.6549 32.4738 17.7709C32.4801 13.9577 32.4784 10.6848 32.4747 9.67257L32.2401 9.52696L32.24 9.52694C31.6876 9.18423 30.9676 8.73753 30.5631 8.46788C28.0411 6.78656 24.3611 5.62504 20.5 5.62504C16.8067 5.62504 12.0073 7.42097 10.4369 8.46788C10.0324 8.73753 9.31239 9.18422 8.75997 9.52692L8.54167 9.6624V26.125C8.54167 28.702 12.3497 32.2216 20.5016 36.0368C28.6524 32.2302 32.4583 28.7119 32.4583 26.125ZM26.1254 14.6671L18.7917 22.0008L14.8747 18.0838L12.4587 20.4997L18.7917 26.8327L28.5414 17.0831L26.1254 14.6671Z" fill="black"/>
</svg>
